<svg width="22" height="22" viewBox="0 0 22 22" fill="none" xmlns="http://www.w3.org/2000/svg">
<path fill-rule="evenodd" clip-rule="evenodd" d="M21.2826 14.4109L19.207 13.2249L11.7117 17.5043C11.2708 17.7568 10.7292 17.7568 10.2884 17.5043L2.79496 13.2249L0.717397 14.4109C0.568497 14.4961 0.476624 14.6545 0.476624 14.8261C0.476624 14.9976 0.568497 15.156 0.717397 15.2412L10.7609 20.9803C10.9079 21.0643 11.0883 21.0643 11.2353 20.9803L21.2788 15.2412C21.4277 15.156 21.5196 14.9976 21.5196 14.8261C21.5196 14.6545 21.4277 14.4961 21.2788 14.4109H21.2826Z" fill="#258AFF"/>
<path fill-rule="evenodd" clip-rule="evenodd" d="M21.2826 10.1067L19.207 8.92065L11.7117 13.2001C11.2708 13.4526 10.7292 13.4526 10.2884 13.2001L2.79496 8.92065L0.717397 10.1067C0.568497 10.1919 0.476624 10.3503 0.476624 10.5219C0.476624 10.6934 0.568497 10.8518 0.717397 10.937L10.7609 16.6761C10.9079 16.7601 11.0883 16.7601 11.2353 16.6761L21.2788 10.937C21.4277 10.8518 21.5196 10.6934 21.5196 10.5219C21.5196 10.3503 21.4277 10.1919 21.2788 10.1067H21.2826Z" fill="#258AFF"/>
<path fill-rule="evenodd" clip-rule="evenodd" d="M21.2826 5.80235L11.2392 0.0632203C11.0922 -0.0207479 10.9117 -0.0207479 10.7647 0.0632203L0.721242 5.80235C0.572343 5.88753 0.480469 6.04594 0.480469 6.21748C0.480469 6.38902 0.572343 6.54743 0.721242 6.63261L10.7647 12.3717C10.9117 12.4557 11.0922 12.4557 11.2392 12.3717L21.2826 6.63261C21.4315 6.54743 21.5234 6.38902 21.5234 6.21748C21.5234 6.04594 21.4315 5.88753 21.2826 5.80235Z" fill="#258AFF"/>
</svg>
